<svg width="1763" height="451" viewBox="0 0 1763 451" fill="none" xmlns="http://www.w3.org/2000/svg">
<g filter="url(#filter0_d_44_87)">
<path d="M4 120C4 53.7258 57.7258 0 124 0L1639 0C1705.27 0 1759 53.7258 1759 120V323C1759 389.274 1705.27 443 1639 443L124 443C57.7258 443 4 389.274 4 323L4 120Z" fill="#A63A5F" fill-opacity="0.86" shape-rendering="crispEdges"/>
<path d="M4.5 120C4.5 54.002 58.002 0.5 124 0.5L1639 0.5C1705 0.5 1758.5 54.002 1758.5 120V323C1758.5 388.998 1705 442.5 1639 442.5L124 442.5C58.002 442.5 4.5 388.998 4.5 323L4.5 120Z" stroke="black" shape-rendering="crispEdges"/>
</g>
<defs>
<filter id="filter0_d_44_87" x="0" y="0" width="1763" height="451" filterUnits="userSpaceOnUse" color-interpolation-filters="sRGB">
<feFlood flood-opacity="0" result="BackgroundImageFix"/>
<feColorMatrix in="SourceAlpha" type="matrix" values="0 0 0 0 0 0 0 0 0 0 0 0 0 0 0 0 0 0 127 0" result="hardAlpha"/>
<feOffset dy="4"/>
<feGaussianBlur stdDeviation="2"/>
<feComposite in2="hardAlpha" operator="out"/>
<feColorMatrix type="matrix" values="0 0 0 0 0 0 0 0 0 0 0 0 0 0 0 0 0 0 0.25 0"/>
<feBlend mode="normal" in2="BackgroundImageFix" result="effect1_dropShadow_44_87"/>
<feBlend mode="normal" in="SourceGraphic" in2="effect1_dropShadow_44_87" result="shape"/>
</filter>
</defs>
</svg>
